<svg width="222" height="222" viewBox="0 0 222 222" fill="none" xmlns="http://www.w3.org/2000/svg">
<path d="M204.664 17.3349C181.536 -5.77829 144.042 -5.77829 120.92 17.3349L87.8781 50.3505C90.4937 50.0667 93.1371 49.9438 95.7931 49.9438C104.155 49.9438 112.287 51.2725 119.984 53.8323L138.708 35.1222C145.139 28.6873 153.691 25.1516 162.785 25.1516C171.88 25.1516 180.432 28.6873 186.863 35.1222C193.294 41.5444 196.83 50.0794 196.83 59.1835C196.83 68.2742 193.294 76.8226 186.863 83.244L150.229 119.864C143.798 126.3 135.247 129.835 126.152 129.835C117.044 129.835 108.506 126.3 102.069 119.864C98.9377 116.748 96.4981 113.117 94.8176 109.16C90.6436 109.391 86.7401 111.125 83.7581 114.106L74 123.873C76.6703 128.817 80.0996 133.478 84.2736 137.665C107.395 160.778 144.896 160.778 168.024 137.665L204.664 101.032C227.779 77.9206 227.779 40.4472 204.664 17.3349Z" fill="#090B37"/>
<path d="M126.587 172.046C118.213 172.046 110 170.691 102.127 168.022L83.277 186.866C76.8537 193.301 68.3028 196.836 59.2095 196.836C50.117 196.836 41.5795 193.301 35.142 186.866C28.7052 180.445 25.1676 171.898 25.1676 162.808C25.1676 153.718 28.7052 145.169 35.142 138.736L71.7722 102.12C78.2089 95.6981 86.7464 92.1627 95.8397 92.1627C104.946 92.1627 113.484 95.6981 119.914 102.12C123.045 105.249 125.49 108.879 127.178 112.835C131.365 112.617 135.275 110.87 138.256 107.891L148 98.1373C145.331 93.1782 141.895 88.5187 137.714 84.3333C114.596 61.2222 77.0987 61.2222 53.9796 84.3333L17.3494 120.963C-5.78314 144.074 -5.78314 181.542 17.3494 204.667C40.4685 227.778 77.952 227.778 101.071 204.667L134.055 171.695C131.596 171.924 129.109 172.047 126.602 172.047L126.587 172.046Z" fill="#090B37"/>
</svg>
