<svg width="333" height="275" viewBox="0 0 333 275" fill="none" xmlns="http://www.w3.org/2000/svg">
<path fill-rule="evenodd" clip-rule="evenodd" d="M161.691 73.1539L162.412 85.0493L150.382 83.5923C106.591 78.0088 68.334 59.0753 35.851 27.2754L19.9705 11.4973L15.8805 23.1491C7.21778 49.1231 12.7527 76.553 30.7977 95.0016C40.4226 105.196 38.257 106.653 21.6545 100.585C15.8805 98.6431 10.8273 97.186 10.3468 97.9145C8.66158 99.6141 14.4368 121.703 19.0084 130.442C25.264 142.58 38.0167 154.474 51.9718 161.513L63.7624 167.097L49.8061 167.339C36.3327 167.339 35.851 167.583 37.2948 172.68C42.1067 188.458 61.115 205.207 82.2891 212.49L97.2063 217.588L84.2133 225.355C64.9647 236.522 42.3481 242.833 19.7303 243.319C8.903 243.562 0 244.533 0 245.261C0 247.688 29.3539 261.282 46.438 266.623C97.6879 282.401 158.563 275.604 204.279 248.659C236.761 229.482 269.244 191.371 284.402 154.474C292.583 134.812 300.763 98.8855 300.763 81.6503C300.763 70.4846 301.485 69.0276 314.96 55.6763C322.899 47.9085 330.359 39.4133 331.802 36.9852C334.208 32.3728 333.968 32.3728 321.697 36.5003C301.245 43.7821 298.357 42.8111 308.463 31.8879C315.922 24.12 324.825 10.0402 324.825 5.91388C324.825 5.18534 321.215 6.39876 317.125 8.58436C312.794 11.0112 303.169 14.6527 295.951 16.8371L282.958 20.9647L271.169 12.9532C264.672 8.58435 255.529 3.72946 250.717 2.2724C238.446 -1.12544 219.678 -0.640547 208.609 3.24337C178.533 14.1678 159.525 42.3262 161.691 73.1539Z" fill="#090B37"/>
</svg>
